<?xml version="1.0" encoding="UTF-8"?>
<svg width="95px" height="58px" viewBox="0 0 95 58" version="1.1" xmlns="http://www.w3.org/2000/svg" xmlns:xlink="http://www.w3.org/1999/xlink">
    <!-- Generator: Sketch 59.1 (86144) - https://sketch.com -->
    <title>noun_Clever_1248022</title>
    <desc>Created with Sketch.</desc>
    <g id="Page-1" stroke="none" stroke-width="1" fill="none" fill-rule="evenodd">
        <g id="noun_Clever_1248022" fill="#000000" fill-rule="nonzero">
            <g id="Group">
                <path d="M71,36.9 C70.9,35.5 70.6,34.1 70,32.7 C69.3,31.1 68.4,29.7 67.1,28.5 C65.9,27.3 64.4,26.3 62.9,25.6 C59.6,24.2 55.8,24.2 52.5,25.6 C51.4,26 50.5,26.6 49.6,27.3 C47.4,24.5 44,22.8 40.4,22.8 C35.8,22.8 31.9,25.4 29.9,29.2 C24,29.7 19.5,34.5 19.4,40.4 C18.5,40.8 17.7,41.4 16.9,42.1 C15.2,43.8 14.2,46 14.2,48.4 C14.2,50.8 15,53.2 16.7,54.9 C18.4,56.6 20.8,57.7 23.2,57.7 L70,57.7 C75.7,57.7 80.3,52.7 80.3,47 C80.3,41.9 76.2,37.5 71,36.9 Z M70,55.4 L66.5,55.4 C67.8,54.1 68.7,52.2 68.7,50.2 C68.7,50.1 68.7,50.1 68.7,50 L68.7,50 C68.7,48.4 70,47.1 71.6,47.1 C72.2,47.1 72.7,46.6 72.7,46 C72.7,45.4 72.1,45 71.5,45 C70,45 68.7,45.7 67.8,46.7 C66.6,44.4 64.1,42.8 61.3,42.8 C60.7,42.8 60.2,43.3 60.2,43.9 C60.2,44.5 60.7,45 61.3,45 C64.2,45 66.5,47.3 66.5,50.2 C66.5,53.1 64.2,55.4 61.3,55.4 L42.9,55.4 C39.9,55.4 37.5,53 37.5,50 C37.5,47 39.9,44.6 42.9,44.6 C46.6,44.6 49.6,41.6 49.6,37.9 C49.6,37.3 49.1,36.8 48.5,36.8 C47.9,36.8 47.4,37.3 47.4,37.9 C47.4,40.4 45.3,42.5 42.8,42.5 C40.3,42.5 38.2,40.4 38.2,37.9 C38.2,36.7 38.7,35.5 39.5,34.7 C39.9,34.3 39.9,33.6 39.5,33.2 C39.1,32.8 38.4,32.8 38,33.2 C36.7,34.5 36,36.2 36,37.9 C36,40.2 37.2,42.3 39,43.5 C36.7,44.8 35.2,47.3 35.2,50.1 C35.2,52.2 36.1,54.2 37.5,55.5 L30.6,55.5 C30.1,51.5 26.6,48.4 22.5,48.4 C21.9,48.4 21.4,48.9 21.4,49.5 C21.4,50.1 21.9,50.6 22.5,50.6 C25.5,50.6 28,52.8 28.5,55.6 L23.2,55.6 L23.2,55.6 L23.2,55.6 C21.4,55.6 19.7,54.9 18.4,53.6 C17.1,52.3 16.4,50.6 16.4,48.8 C16.4,47 17.1,45.3 18.4,44 C19.7,42.7 21.4,42 23.2,42 C25,42 26.7,42.7 28,44 C28.4,44.4 29.1,44.4 29.5,44 C29.9,43.6 29.9,42.9 29.5,42.5 C27.8,40.8 25.6,39.9 23.2,39.9 C22.6,39.9 22.1,40 21.5,40.1 C21.9,36 24.9,32.7 28.9,31.8 C28.6,32.8 28.5,33.9 28.5,34.9 C28.5,35.5 29,36 29.6,36 C30.2,36 30.7,35.5 30.7,34.9 C30.7,29.6 35,25.2 40.4,25.2 C43.4,25.2 46.2,26.6 48,29 C46.9,30.2 46,31.5 45.4,33 C45.2,33.5 45.4,34.2 46,34.4 C46.5,34.6 47.2,34.4 47.4,33.8 C48,32.5 48.8,31.3 49.8,30.2 C50.8,29.2 52,28.4 53.4,27.8 C56.2,26.6 59.4,26.6 62.1,27.8 C63.4,28.4 64.6,29.2 65.7,30.2 C66.7,31.2 67.5,32.4 68.1,33.8 C68.7,35.2 69,36.7 69,38.2 C69,38.8 69.5,39.3 70.1,39.3 C74.6,39.3 78.3,43 78.3,47.5 C78.2,51.7 74.5,55.4 70,55.4 Z" id="Shape"></path>
                <path d="M55,37 C52.5,39.5 52.5,43.6 55,46.1 C55.2,46.3 55.5,46.4 55.8,46.4 C56.1,46.4 56.3,46.3 56.6,46.1 C57,45.7 57,45 56.6,44.6 C54.9,42.9 54.9,40.2 56.6,38.5 C58.3,36.8 61,36.8 62.7,38.5 C63.1,38.9 63.8,38.9 64.2,38.5 C64.6,38.1 64.6,37.4 64.2,37 C61.5,34.5 57.5,34.5 55,37 Z" id="Path"></path>
                <path d="M31.7,14.7 C31.9,15.1 32.3,15.3 32.7,15.3 C32.9,15.3 33,15.3 33.1,15.2 C33.6,15 33.9,14.3 33.6,13.8 L29.6,5.2 C29.4,4.7 28.7,4.4 28.2,4.7 C27.7,4.9 27.4,5.6 27.7,6.1 L31.7,14.7 Z" id="Path"></path>
                <path d="M11.8,33.9 L2.2,30.7 C1.6,30.5 1,30.8 0.9,31.4 C0.7,32 1,32.6 1.6,32.7 L11.2,35.9 C11.3,35.9 11.4,36 11.5,36 C11.9,36 12.4,35.7 12.5,35.3 C12.7,34.7 12.4,34.1 11.8,33.9 Z" id="Path"></path>
                <path d="M47.8,11.9 L47.8,11.9 C48.4,11.9 48.9,11.4 48.9,10.8 L48.9,1.3 C48.9,0.7 48.4,0.2 47.8,0.2 L47.8,0.2 C47.2,0.2 46.7,0.7 46.7,1.3 L46.7,10.8 C46.7,11.4 47.2,11.9 47.8,11.9 Z" id="Path"></path>
                <path d="M19.2,23.6 C19.4,23.8 19.6,23.9 19.9,23.9 C20.2,23.9 20.5,23.8 20.7,23.5 C21.1,23.1 21,22.4 20.6,22 L13.3,15.6 C12.9,15.2 12.2,15.3 11.8,15.7 C11.4,16.1 11.5,16.8 11.9,17.2 L19.2,23.6 Z" id="Path"></path>
                <path d="M75.7,21.5 C76,21.5 76.2,21.4 76.4,21.2 L83.7,14.2 C84.1,13.8 84.1,13.1 83.7,12.7 C83.3,12.3 82.6,12.3 82.2,12.7 L74.9,19.7 C74.5,20.1 74.5,20.8 74.9,21.2 C75.1,21.4 75.4,21.5 75.7,21.5 Z" id="Path"></path>
                <path d="M62.3,14.9 C62.4,15 62.6,15 62.7,15 C63.1,15 63.5,14.8 63.7,14.4 L67.6,5.8 C67.8,5.3 67.6,4.6 67.1,4.4 C66.6,4.2 65.9,4.4 65.7,4.9 L61.8,13.5 C61.5,14 61.8,14.6 62.3,14.9 Z" id="Path"></path>
                <path d="M94.8,30.4 C94.6,29.8 94,29.6 93.4,29.8 L83.9,33.2 C83.3,33.4 83.1,34 83.3,34.6 C83.5,35 83.9,35.3 84.3,35.3 C84.4,35.3 84.5,35.3 84.7,35.2 L94.2,31.8 C94.7,31.5 95,30.9 94.8,30.4 Z" id="Path"></path>
            </g>
        </g>
    </g>
</svg>