<?xml version="1.0" encoding="UTF-8"?>
<svg width="48px" height="72px" viewBox="0 0 48 72" version="1.1" xmlns="http://www.w3.org/2000/svg" xmlns:xlink="http://www.w3.org/1999/xlink">
    <!-- Generator: Sketch 59.1 (86144) - https://sketch.com -->
    <title>noun_living place_1189791</title>
    <desc>Created with Sketch.</desc>
    <g id="Page-1" stroke="none" stroke-width="1" fill="none" fill-rule="evenodd">
        <g id="noun_living-place_1189791" fill="#000000" fill-rule="nonzero">
            <g id="Group">
                <path d="M47.8,24.6 C47.8,24.5 47.8,24.3 47.7,24.2 C47.6,24.1 47.6,24 47.5,23.9 C47.5,23.9 47.5,23.9 47.5,23.9 L24.8,1.1 C24.4,0.7 23.7,0.7 23.3,1.1 L0.5,23.9 C0.5,23.9 0.5,23.9 0.5,23.9 C0.4,24 0.3,24.1 0.3,24.2 C0.3,24.3 0.2,24.4 0.2,24.6 C0.2,24.6 0.2,24.6 0.2,24.6 L0.2,70.1 C0.2,70.7 0.7,71.2 1.3,71.2 L15.7,71.2 C16.3,71.2 16.8,70.7 16.8,70.1 C16.8,69.5 16.3,69 15.7,69 L2.3,69 L2.3,25.7 L45.7,25.7 L45.7,69.1 L32.3,69.1 C31.7,69.1 31.2,69.6 31.2,70.2 C31.2,70.8 31.7,71.3 32.3,71.3 L46.7,71.3 C47.3,71.3 47.8,70.8 47.8,70.2 L47.8,24.6 C47.8,24.6 47.8,24.6 47.8,24.6 Z M24,3.4 L44.2,23.6 L3.8,23.6 L24,3.4 Z" id="Shape"></path>
                <path d="M35.4,37.7 C35.8,37.3 35.8,36.6 35.4,36.2 C35,35.8 34.3,35.8 33.9,36.2 L26.9,43.2 L21.1,43.2 L14.1,36.2 C13.7,35.8 13,35.8 12.6,36.2 C12.2,36.6 12.2,37.3 12.6,37.7 L19.6,44.7 L19.6,58.4 L19.6,70.1 C19.6,70.7 20.1,71.2 20.7,71.2 C21.3,71.2 21.8,70.7 21.8,70.1 L21.8,59.5 L26.4,59.5 L26.4,70.2 C26.4,70.8 26.9,71.3 27.5,71.3 C28.1,71.3 28.6,70.8 28.6,70.2 L28.6,58.4 L28.6,44.7 L35.4,37.7 Z M21.7,45.4 L26.3,45.4 L26.3,57.4 L21.7,57.4 L21.7,45.4 Z" id="Shape"></path>
                <path d="M27.9,38 C27.9,35.8 26.1,34.1 24,34.1 C21.9,34.1 20.1,35.9 20.1,38 C20.1,40.2 21.9,41.9 24,41.9 C26.1,41.9 27.9,40.2 27.9,38 Z M22.2,38 C22.2,37 23,36.2 24,36.2 C25,36.2 25.8,37 25.8,38 C25.8,39 25,39.8 24,39.8 C23,39.8 22.2,39 22.2,38 Z" id="Shape"></path>
            </g>
        </g>
    </g>
</svg>