<?xml version="1.0" encoding="UTF-8"?>
<svg width="50px" height="67px" viewBox="0 0 50 67" version="1.1" xmlns="http://www.w3.org/2000/svg" xmlns:xlink="http://www.w3.org/1999/xlink">
    <!-- Generator: Sketch 59.1 (86144) - https://sketch.com -->
    <title>noun_heritage_1189794</title>
    <desc>Created with Sketch.</desc>
    <g id="Page-1" stroke="none" stroke-width="1" fill="none" fill-rule="evenodd">
        <g id="noun_heritage_1189794" fill="#000000" fill-rule="nonzero">
            <g id="Group">
                <path d="M48.9,64.1 L1.1,64.1 C0.5,64.1 0,64.6 0,65.2 C0,65.8 0.5,66.3 1.1,66.3 L48.8,66.3 C49.4,66.3 49.9,65.8 49.9,65.2 C49.9,64.6 49.4,64.1 48.9,64.1 Z" id="Path"></path>
                <path d="M0.2,16.3 C0.2,16.3 0.2,16.3 0.2,16.3 C0.2,16.4 0.2,16.4 0.3,16.5 C0.3,16.6 0.4,16.6 0.5,16.7 C0.5,16.7 0.5,16.7 0.6,16.8 C0.7,16.9 0.8,16.9 0.8,17 C0.8,17 0.9,17 0.9,17.1 C1,17.1 1.1,17.1 1.1,17.1 C1.1,17.1 1.2,17.1 1.2,17.1 L48.9,17.1 C48.9,17.1 48.9,17.1 48.9,17.1 C48.9,17.1 48.9,17.1 48.9,17.1 C49,17.1 49.2,17.1 49.3,17 C49.3,17 49.3,17 49.3,17 C49.5,16.9 49.7,16.8 49.8,16.6 C49.8,16.6 49.8,16.5 49.8,16.5 C49.8,16.5 49.8,16.5 49.8,16.5 C49.9,16.4 49.9,16.2 49.9,16.1 C49.9,16.1 49.9,16.1 49.9,16.1 C49.9,16.1 49.9,16.1 49.9,16.1 C49.9,16 49.9,15.8 49.8,15.7 C49.8,15.7 49.8,15.7 49.8,15.7 C49.8,15.6 49.7,15.5 49.6,15.4 C49.6,15.4 49.6,15.4 49.5,15.3 C49.5,15.3 49.4,15.2 49.4,15.2 L25.5,0.9 C25.2,0.7 24.8,0.7 24.4,0.9 L0.6,15 C0.5,15 0.5,15.1 0.5,15.1 C0.5,15.1 0.5,15.1 0.4,15.2 C0.3,15.3 0.3,15.4 0.2,15.5 C0.2,15.5 0.2,15.5 0.2,15.5 C0.1,15.6 0.1,15.8 0.1,15.9 C0.1,15.9 0.1,15.9 0.1,15.9 C0.1,15.9 0.1,15.9 0.1,15.9 C0.1,16.1 0.1,16.2 0.2,16.3 Z M25,3.1 L45,14.9 L5,14.9 L25,3.1 Z" id="Shape"></path>
                <path d="M22.2,53.5 L22.2,26.9 C22.2,26.3 21.7,25.8 21.1,25.8 C20.5,25.8 20,26.3 20,26.9 L20,53.5 C20,54.1 20.5,54.6 21.1,54.6 C21.7,54.6 22.2,54.1 22.2,53.5 Z" id="Path"></path>
                <path d="M14.4,53.5 L14.4,26.9 C14.4,26.3 13.9,25.8 13.3,25.8 C12.7,25.8 12.2,26.3 12.2,26.9 L12.2,53.5 C12.2,54.1 12.7,54.6 13.3,54.6 C13.9,54.6 14.4,54.1 14.4,53.5 Z" id="Path"></path>
                <path d="M6.7,53.5 L6.7,26.9 C6.7,26.3 6.2,25.8 5.6,25.8 C5,25.8 4.5,26.3 4.5,26.9 L4.5,53.5 C4.5,54.1 5,54.6 5.6,54.6 C6.2,54.6 6.7,54.1 6.7,53.5 Z" id="Path"></path>
                <path d="M29.9,53.5 L29.9,26.9 C29.9,26.3 29.4,25.8 28.8,25.8 C28.2,25.8 27.7,26.3 27.7,26.9 L27.7,53.5 C27.7,54.1 28.2,54.6 28.8,54.6 C29.4,54.6 29.9,54.1 29.9,53.5 Z" id="Path"></path>
                <path d="M37.7,53.5 L37.7,26.9 C37.7,26.3 37.2,25.8 36.6,25.8 C36,25.8 35.5,26.3 35.5,26.9 L35.5,53.5 C35.5,54.1 36,54.6 36.6,54.6 C37.2,54.6 37.7,54.1 37.7,53.5 Z" id="Path"></path>
                <path d="M45.4,53.5 L45.4,26.9 C45.4,26.3 44.9,25.8 44.3,25.8 C43.7,25.8 43.2,26.3 43.2,26.9 L43.2,53.5 C43.2,54.1 43.7,54.6 44.3,54.6 C44.9,54.6 45.4,54.1 45.4,53.5 Z" id="Path"></path>
                <path d="M48.9,19.8 L1.1,19.8 C0.5,19.8 0,20.3 0,20.9 C0,21.5 0.5,22 1.1,22 L48.8,22 C49.4,22 49.9,21.5 49.9,20.9 C49.9,20.3 49.4,19.8 48.9,19.8 Z" id="Path"></path>
                <path d="M48.9,58.4 L1.1,58.4 C0.5,58.4 0,58.9 0,59.5 C0,60.1 0.5,60.6 1.1,60.6 L48.8,60.6 C49.4,60.6 49.9,60.1 49.9,59.5 C49.9,58.9 49.4,58.4 48.9,58.4 Z" id="Path"></path>
            </g>
        </g>
    </g>
</svg>