<?xml version="1.0" encoding="UTF-8"?>
<svg width="42px" height="61px" viewBox="0 0 42 61" version="1.1" xmlns="http://www.w3.org/2000/svg" xmlns:xlink="http://www.w3.org/1999/xlink">
    <!-- Generator: Sketch 59.1 (86144) - https://sketch.com -->
    <title>noun_beach_1189798</title>
    <desc>Created with Sketch.</desc>
    <g id="Page-1" stroke="none" stroke-width="1" fill="none" fill-rule="evenodd">
        <g id="noun_beach_1189798" fill="#000000" fill-rule="nonzero">
            <g id="Group">
                <path d="M2.3,47.9 C9,41.2 16.9,45 20.1,47.9 C22.6,50.2 26.6,52.2 31,52.2 C34.3,52.2 37.8,51 41,47.8 C41.4,47.4 41.4,46.7 41,46.3 C40.6,45.9 39.9,45.9 39.5,46.3 C32.7,53.1 24.8,49.2 21.6,46.3 C17.3,42.3 8.2,39 0.9,46.3 C0.5,46.7 0.5,47.4 0.9,47.8 C1.2,48.3 1.9,48.3 2.3,47.9 Z" id="Path"></path>
                <path d="M39.4,54.3 C32.6,61.1 24.7,57.2 21.5,54.3 C17.2,50.3 8.1,47 0.8,54.3 C0.4,54.7 0.4,55.4 0.8,55.8 C1.2,56.2 1.9,56.2 2.3,55.8 C9,49.1 16.9,52.9 20.1,55.8 C22.6,58.1 26.6,60.1 31,60.1 C34.3,60.1 37.8,58.9 41,55.7 C41.4,55.3 41.4,54.6 41,54.2 C40.5,53.9 39.9,53.9 39.4,54.3 Z" id="Path"></path>
                <path d="M20.8,30.1 C26.4,30.1 31,25.5 31,19.9 C31,14.3 26.4,9.7 20.8,9.7 C15.2,9.7 10.6,14.3 10.6,19.9 C10.6,25.5 15.1,30.1 20.8,30.1 Z M20.8,11.9 C25.2,11.9 28.8,15.5 28.8,19.9 C28.8,24.3 25.2,27.9 20.8,27.9 C16.4,27.9 12.8,24.3 12.8,19.9 C12.8,15.5 16.3,11.9 20.8,11.9 Z" id="Shape"></path>
                <path d="M35.8,21 L39.3,21 C39.9,21 40.4,20.5 40.4,19.9 C40.4,19.3 39.9,18.8 39.3,18.8 L35.8,18.8 C35.2,18.8 34.7,19.3 34.7,19.9 C34.7,20.5 35.2,21 35.8,21 Z" id="Path"></path>
                <path d="M31.4,10.4 C31.7,10.4 31.9,10.3 32.2,10.1 L34.7,7.6 C35.1,7.2 35.1,6.5 34.7,6.1 C34.3,5.7 33.6,5.7 33.2,6.1 L30.7,8.6 C30.3,9 30.3,9.7 30.7,10.1 C30.8,10.3 31.1,10.4 31.4,10.4 Z" id="Path"></path>
                <path d="M20.8,6 C21.4,6 21.9,5.5 21.9,4.9 L21.9,1.4 C21.9,0.8 21.4,0.3 20.8,0.3 C20.2,0.3 19.7,0.8 19.7,1.4 L19.7,4.9 C19.7,5.5 20.2,6 20.8,6 Z" id="Path"></path>
                <path d="M9.4,10.1 C9.6,10.3 9.9,10.4 10.2,10.4 C10.5,10.4 10.7,10.3 11,10.1 C11.4,9.7 11.4,9 11,8.6 L8.5,6.1 C8.1,5.7 7.4,5.7 7,6.1 C6.6,6.5 6.6,7.2 7,7.6 L9.4,10.1 Z" id="Path"></path>
                <path d="M2.2,21 L5.7,21 C6.3,21 6.8,20.5 6.8,19.9 C6.8,19.3 6.3,18.8 5.7,18.8 L2.2,18.8 C1.6,18.8 1.1,19.3 1.1,19.9 C1.1,20.5 1.6,21 2.2,21 Z" id="Path"></path>
                <path d="M9.4,29.8 L6.9,32.3 C6.5,32.7 6.5,33.4 6.9,33.8 C7.1,34 7.4,34.1 7.7,34.1 C8,34.1 8.2,34 8.5,33.8 L11,31.3 C11.4,30.9 11.4,30.2 11,29.8 C10.5,29.4 9.8,29.4 9.4,29.8 Z" id="Path"></path>
                <path d="M19.7,35 L19.7,38.5 C19.7,39.1 20.2,39.6 20.8,39.6 C21.4,39.6 21.9,39.1 21.9,38.5 L21.9,35 C21.9,34.4 21.4,33.9 20.8,33.9 C20.2,33.9 19.7,34.4 19.7,35 Z" id="Path"></path>
                <path d="M32.1,29.8 C31.7,29.4 31,29.4 30.6,29.8 C30.2,30.2 30.2,30.9 30.6,31.3 L33.1,33.8 C33.3,34 33.6,34.1 33.9,34.1 C34.2,34.1 34.4,34 34.7,33.8 C35.1,33.4 35.1,32.7 34.7,32.3 L32.1,29.8 Z" id="Path"></path>
            </g>
        </g>
    </g>
</svg>